<svg width="1440" height="240" viewBox="0 0 1440 240" fill="none" xmlns="http://www.w3.org/2000/svg">
<path d="M1440 40.1526H1441.5V37.9695L1439.46 38.7524L1440 40.1526ZM1440 238.041V239.541H1441.5V238.041H1440ZM0 238.041H-1.5V239.541H0V238.041ZM0 60.4769L-0.466184 59.0512L-1.5 59.3893V60.4769H0ZM414.784 3.78904L414.693 5.28625L414.784 3.78904ZM658.983 93.3685L660.125 92.3958L658.983 93.3685ZM805.424 175.495L805.111 176.962L805.424 175.495ZM1439.46 38.7524C1438.55 39.1025 1437.64 39.4531 1436.72 39.8041L1437.79 42.6055C1438.71 42.2542 1439.63 41.9033 1440.54 41.5529L1439.46 38.7524ZM1431.19 41.9152C1429.34 42.6207 1427.48 43.3277 1425.61 44.0363L1426.67 46.8417C1428.55 46.1325 1430.41 45.4248 1432.26 44.7187L1431.19 41.9152ZM1420.01 46.1521C1418.18 46.8431 1416.33 47.5354 1414.48 48.2288L1415.54 51.0381C1417.39 50.344 1419.23 49.6511 1421.07 48.9595L1420.01 46.1521ZM1408.91 50.3128C1407.04 51.0085 1405.16 51.7054 1403.28 52.4032L1404.32 55.2163C1406.21 54.5179 1408.08 53.8204 1409.95 53.124L1408.91 50.3128ZM1397.73 54.4529C1395.88 55.1347 1394.02 55.8172 1392.16 56.5005L1393.19 59.3174C1395.06 58.6335 1396.92 57.9503 1398.77 57.2679L1397.73 54.4529ZM1386.54 58.5523C1384.68 59.2305 1382.81 59.9092 1380.94 60.5884L1381.96 63.409C1383.84 62.7291 1385.71 62.0498 1387.57 61.371L1386.54 58.5523ZM1375.37 62.6006C1373.51 63.2717 1371.64 63.9432 1369.76 64.6149L1370.78 67.4391C1372.65 66.7668 1374.52 66.0947 1376.39 65.423L1375.37 62.6006ZM1364.12 66.6309C1362.27 67.2914 1360.41 67.9522 1358.54 68.6129L1359.54 71.4408C1361.41 70.7794 1363.27 70.1181 1365.13 69.4569L1364.12 66.6309ZM1352.94 70.591C1351.07 71.2503 1349.19 71.9096 1347.31 72.5688L1348.3 75.4002C1350.18 74.7404 1352.06 74.0805 1353.94 73.4206L1352.94 70.591ZM1341.67 74.5364C1339.81 75.1842 1337.95 75.8318 1336.08 76.4791L1337.06 79.3141C1338.93 78.6662 1340.8 78.018 1342.66 77.3696L1341.67 74.5364ZM1330.45 78.42C1328.57 79.0666 1326.69 79.7128 1324.8 80.3585L1325.77 83.1972C1327.66 82.5508 1329.54 81.904 1331.43 81.2568L1330.45 78.42ZM1319.17 82.2771C1317.3 82.9127 1315.43 83.5478 1313.55 84.1822L1314.51 87.0244C1316.39 86.3894 1318.26 85.7538 1320.14 85.1176L1319.17 82.2771ZM1307.9 86.0833C1306.02 86.7163 1304.13 87.3486 1302.23 87.9801L1303.18 90.826C1305.08 90.1939 1306.97 89.561 1308.86 88.9273L1307.9 86.0833ZM1296.6 89.8521C1294.73 90.4745 1292.85 91.0961 1290.96 91.7168L1291.9 94.5662C1293.79 93.945 1295.67 93.3228 1297.55 92.6997L1296.6 89.8521ZM1285.3 93.5757C1283.41 94.1935 1281.52 94.8102 1279.62 95.4258L1280.55 98.2789C1282.45 97.6627 1284.34 97.0454 1286.23 96.427L1285.3 93.5757ZM1273.98 97.2548C1272.09 97.8633 1270.21 98.4706 1268.32 99.0767L1269.23 101.933C1271.12 101.327 1273.01 100.719 1274.9 100.11L1273.98 97.2548ZM1262.64 100.891C1260.75 101.493 1258.85 102.094 1256.96 102.693L1257.86 105.553C1259.76 104.953 1261.66 104.352 1263.55 103.75L1262.64 100.891ZM1251.29 104.478C1249.4 105.072 1247.51 105.664 1245.61 106.255L1246.5 109.119C1248.4 108.527 1250.3 107.935 1252.19 107.34L1251.29 104.478ZM1239.92 108.022C1238.03 108.608 1236.13 109.192 1234.23 109.774L1235.11 112.642C1237.01 112.059 1238.91 111.474 1240.81 110.888L1239.92 108.022ZM1228.55 111.513C1226.65 112.091 1224.75 112.667 1222.85 113.241L1223.72 116.113C1225.62 115.538 1227.52 114.962 1229.42 114.383L1228.55 111.513ZM1217.15 114.958C1215.25 115.528 1213.35 116.096 1211.44 116.661L1212.3 119.537C1214.2 118.97 1216.11 118.402 1218.01 117.832L1217.15 114.958ZM1205.74 118.35C1203.84 118.911 1201.93 119.47 1200.03 120.027L1200.87 122.907C1202.78 122.349 1204.68 121.79 1206.59 121.228L1205.74 118.35ZM1194.31 121.691C1192.41 122.243 1190.5 122.794 1188.6 123.341L1189.42 126.225C1191.33 125.676 1193.24 125.125 1195.15 124.572L1194.31 121.691ZM1182.87 124.978C1180.96 125.521 1179.06 126.061 1177.15 126.6L1177.96 129.487C1179.87 128.948 1181.78 128.407 1183.69 127.863L1182.87 124.978ZM1171.42 128.207C1169.51 128.741 1167.6 129.273 1165.68 129.802L1166.48 132.693C1168.4 132.164 1170.31 131.631 1172.23 131.096L1171.42 128.207ZM1159.94 131.381C1158.03 131.905 1156.12 132.426 1154.2 132.944L1154.99 135.84C1156.9 135.321 1158.82 134.799 1160.73 134.275L1159.94 131.381ZM1148.46 134.492C1146.54 135.006 1144.62 135.518 1142.7 136.027L1143.47 138.927C1145.4 138.417 1147.32 137.905 1149.24 137.389L1148.46 134.492ZM1136.95 137.545C1135.03 138.048 1133.11 138.548 1131.2 139.044L1131.95 141.948C1133.87 141.451 1135.79 140.95 1137.71 140.447L1136.95 137.545ZM1125.44 140.528C1123.51 141.022 1121.58 141.512 1119.66 141.999L1120.4 144.907C1122.32 144.42 1124.25 143.929 1126.18 143.434L1125.44 140.528ZM1113.89 143.45C1111.97 143.93 1110.05 144.407 1108.13 144.88L1108.84 147.793C1110.77 147.319 1112.69 146.841 1114.62 146.36L1113.89 143.45ZM1102.34 146.296C1100.41 146.767 1098.48 147.233 1096.55 147.696L1097.25 150.613C1099.18 150.15 1101.11 149.682 1103.05 149.211L1102.34 146.296ZM1090.76 149.074C1088.84 149.529 1086.91 149.981 1084.99 150.428L1085.67 153.35C1087.59 152.902 1089.52 152.449 1091.45 151.993L1090.76 149.074ZM1079.18 151.771C1077.24 152.216 1075.3 152.656 1073.36 153.093L1074.02 156.019C1075.96 155.582 1077.9 155.141 1079.85 154.695L1079.18 151.771ZM1067.57 154.39C1065.64 154.818 1063.71 155.242 1061.78 155.662L1062.42 158.593C1064.35 158.173 1066.28 157.748 1068.22 157.318L1067.57 154.39ZM1055.94 156.924C1053.99 157.34 1052.05 157.752 1050.11 158.159L1050.73 161.095C1052.67 160.687 1054.61 160.275 1056.56 159.858L1055.94 156.924ZM1044.3 159.366C1042.36 159.766 1040.42 160.162 1038.48 160.553L1039.07 163.493C1041.01 163.102 1042.96 162.706 1044.91 162.304L1044.3 159.366ZM1032.62 161.72C1030.67 162.105 1028.73 162.484 1026.79 162.858L1027.35 165.804C1029.3 165.429 1031.25 165.049 1033.2 164.664L1032.62 161.72ZM1020.97 163.965C1019.01 164.334 1017.06 164.698 1015.1 165.056L1015.64 168.007C1017.6 167.648 1019.56 167.283 1021.53 166.913L1020.97 163.965ZM1009.23 166.118C1007.28 166.466 1005.34 166.809 1003.39 167.146L1003.91 170.102C1005.85 169.764 1007.81 169.42 1009.76 169.071L1009.23 166.118ZM997.552 168.145C995.579 168.477 993.611 168.803 991.649 169.123L992.132 172.084C994.099 171.763 996.072 171.436 998.05 171.103L997.552 168.145ZM985.778 170.065C983.826 170.372 981.88 170.673 979.94 170.968L980.391 173.934C982.337 173.639 984.288 173.336 986.245 173.028L985.778 170.065ZM974.03 171.849C972.056 172.138 970.088 172.419 968.126 172.694L968.542 175.665C970.51 175.389 972.484 175.107 974.464 174.818L974.03 171.849ZM962.261 173.497C960.293 173.761 958.331 174.017 956.376 174.266L956.755 177.242C958.716 176.992 960.684 176.735 962.659 176.471L962.261 173.497ZM950.439 175.002C948.468 175.24 946.504 175.47 944.547 175.692L944.886 178.673C946.849 178.45 948.82 178.219 950.799 177.98L950.439 175.002ZM938.686 176.337C936.688 176.55 934.699 176.754 932.717 176.95L933.013 179.935C935.001 179.739 936.999 179.534 939.004 179.32L938.686 176.337ZM926.8 177.512C924.836 177.691 922.881 177.861 920.935 178.022L921.183 181.012C923.137 180.85 925.1 180.679 927.072 180.499L926.8 177.512ZM914.961 178.492C912.972 178.639 910.992 178.778 909.023 178.906L909.219 181.9C911.197 181.771 913.186 181.632 915.184 181.483L914.961 178.492ZM903.146 179.263C901.144 179.375 899.154 179.477 897.175 179.569L897.313 182.566C899.302 182.474 901.303 182.371 903.314 182.258L903.146 179.263ZM891.224 179.813C889.252 179.884 887.291 179.944 885.343 179.993L885.419 182.992C887.378 182.943 889.349 182.882 891.331 182.811L891.224 179.813ZM879.366 180.109C877.368 180.136 875.384 180.151 873.414 180.154L873.419 183.154C875.401 183.151 877.397 183.136 879.406 183.109L879.366 180.109ZM867.546 180.127C865.532 180.105 863.534 180.069 861.552 180.02L861.477 183.019C863.474 183.068 865.486 183.104 867.512 183.127L867.546 180.127ZM855.62 179.831C853.65 179.754 851.697 179.663 849.76 179.558L849.597 182.554C851.549 182.66 853.518 182.751 855.503 182.829L855.62 179.831ZM843.767 179.184C841.788 179.043 839.827 178.888 837.885 178.716L837.621 181.705C839.581 181.878 841.559 182.035 843.555 182.176L843.767 179.184ZM831.993 178.141C829.999 177.927 828.025 177.696 826.073 177.447L825.693 180.423C827.666 180.675 829.659 180.908 831.674 181.124L831.993 178.141ZM820.282 176.646C818.286 176.348 816.314 176.03 814.367 175.692L813.854 178.648C815.825 178.99 817.82 179.312 819.839 179.613L820.282 176.646ZM808.575 174.613C807.622 174.423 806.676 174.228 805.736 174.028L805.111 176.962C806.064 177.165 807.023 177.363 807.988 177.555L808.575 174.613ZM805.736 174.028C804.718 173.81 803.707 173.592 802.704 173.372L802.062 176.302C803.07 176.523 804.087 176.743 805.111 176.962L805.736 174.028ZM796.765 172.033C794.74 171.563 792.749 171.088 790.791 170.607L790.076 173.521C792.047 174.005 794.05 174.483 796.087 174.955L796.765 172.033ZM784.848 169.106C782.845 168.585 780.878 168.058 778.946 167.525L778.148 170.417C780.095 170.954 782.076 171.485 784.092 172.009L784.848 169.106ZM773.082 165.859C771.094 165.277 769.144 164.688 767.232 164.093L766.341 166.958C768.269 167.558 770.235 168.151 772.24 168.738L773.082 165.859ZM761.399 162.221C759.428 161.568 757.5 160.909 755.612 160.242L754.613 163.071C756.52 163.744 758.467 164.41 760.456 165.069L761.399 162.221ZM749.872 158.15C747.932 157.418 746.036 156.68 744.184 155.934L743.063 158.717C744.937 159.471 746.853 160.218 748.815 160.957L749.872 158.15ZM738.552 153.588C736.648 152.767 734.792 151.938 732.983 151.102L731.724 153.825C733.557 154.673 735.437 155.512 737.364 156.343L738.552 153.588ZM727.487 148.469C725.632 147.548 723.828 146.619 722.073 145.682L720.66 148.328C722.441 149.279 724.271 150.222 726.153 151.156L727.487 148.469ZM716.754 142.734C714.959 141.701 713.218 140.66 711.528 139.612L709.946 142.161C711.665 143.227 713.434 144.285 715.258 145.334L716.754 142.734ZM706.404 136.309C704.686 135.159 703.023 134 701.41 132.834L699.652 135.266C701.294 136.453 702.987 137.632 704.734 138.802L706.404 136.309ZM696.555 129.189C694.926 127.919 693.348 126.64 691.817 125.354L689.888 127.652C691.446 128.96 693.052 130.262 694.711 131.555L696.555 129.189ZM687.231 121.362C685.702 119.984 684.22 118.599 682.776 117.208L680.694 119.368C682.161 120.781 683.668 122.189 685.222 123.59L687.231 121.362ZM678.455 112.915C677.02 111.447 675.62 109.973 674.248 108.495L672.05 110.537C673.438 112.031 674.855 113.524 676.31 115.012L678.455 112.915ZM670.143 103.978C668.779 102.447 667.436 100.914 666.106 99.3781L663.838 101.342C665.175 102.886 666.528 104.431 667.903 105.974L670.143 103.978ZM662.115 94.7302C661.45 93.952 660.788 93.174 660.125 92.3958L657.841 94.3412C658.504 95.1193 659.167 95.8984 659.833 96.6778L662.115 94.7302ZM660.125 92.3958C659.464 91.6197 658.802 90.8435 658.14 90.0679L655.858 92.0155C656.519 92.7899 657.18 93.565 657.841 94.3412L660.125 92.3958ZM654.15 85.4216C652.816 83.8815 651.47 82.344 650.102 80.8111L647.864 82.8078C649.219 84.3275 650.556 85.8539 651.883 87.3858L654.15 85.4216ZM645.969 76.2685C644.584 74.779 643.17 73.2953 641.721 71.8191L639.58 73.9205C641.009 75.3756 642.403 76.8397 643.773 78.3118L645.969 76.2685ZM637.338 67.4889C635.869 66.0841 634.361 64.6879 632.805 63.3016L630.809 65.5413C632.337 66.9029 633.82 68.2751 635.264 69.6569L637.338 67.4889ZM628.119 59.2802C626.559 57.992 624.952 56.7141 623.291 55.4476L621.472 57.8332C623.101 59.0756 624.678 60.3293 626.209 61.5934L628.119 59.2802ZM618.314 51.8049C616.662 50.6443 614.959 49.4949 613.199 48.3574L611.571 50.8768C613.298 51.9933 614.969 53.1212 616.59 54.2597L618.314 51.8049ZM607.957 45.1059C606.224 44.0748 604.439 43.0549 602.598 42.0467L601.157 44.6778C602.967 45.669 604.721 46.6714 606.423 47.6841L607.957 45.1059ZM597.133 39.1729C595.337 38.2661 593.49 37.3698 591.59 36.4847L590.323 39.204C592.195 40.076 594.013 40.9586 595.781 41.8511L597.133 39.1729ZM585.99 33.9756C584.147 33.1819 582.258 32.398 580.318 31.6244L579.207 34.4109C581.121 35.1746 582.986 35.948 584.803 36.7308L585.99 33.9756ZM574.575 29.4181C572.68 28.7173 570.741 28.0257 568.755 27.3438L567.781 30.1811C569.745 30.8556 571.662 31.5392 573.534 32.2317L574.575 29.4181ZM562.935 25.4158C561.027 24.8063 559.079 24.2051 557.088 23.6126L556.232 26.4879C558.204 27.0749 560.134 27.6702 562.022 28.2735L562.935 25.4158ZM551.16 21.9089C549.223 21.3714 547.248 20.8417 545.234 20.3199L544.482 23.224C546.48 23.7416 548.438 24.2669 550.358 24.7996L551.16 21.9089ZM539.305 18.8346C537.331 18.3564 535.32 17.8854 533.273 17.4219L532.611 20.3479C534.644 20.8082 536.64 21.2757 538.599 21.7503L539.305 18.8346ZM527.34 16.1216C525.361 15.7021 523.35 15.2892 521.305 14.8831L520.721 17.8256C522.753 18.2293 524.752 18.6396 526.717 19.0563L527.34 16.1216ZM515.302 13.7285C513.32 13.3596 511.308 12.9968 509.265 12.6402L508.749 15.5956C510.781 15.9503 512.782 16.3111 514.753 16.6779L515.302 13.7285ZM503.219 11.6181C501.232 11.2929 499.216 10.9733 497.172 10.6594L496.717 13.6247C498.751 13.9371 500.757 14.2551 502.734 14.5787L503.219 11.6181ZM491.107 9.75747C489.111 9.46999 487.088 9.18776 485.038 8.91089L484.637 11.8839C486.678 12.1596 488.692 12.4406 490.68 12.7268L491.107 9.75747ZM478.975 8.11772C476.964 7.86302 474.928 7.61329 472.867 7.3686L472.513 10.3477C474.567 10.5915 476.595 10.8402 478.598 11.0939L478.975 8.11772ZM466.823 6.67395C464.791 6.44796 462.736 6.22669 460.655 6.01023L460.345 8.99412C462.418 9.20986 464.467 9.43036 466.491 9.65556L466.823 6.67395ZM454.645 5.4048C452.619 5.20739 450.57 5.01439 448.499 4.82587L448.227 7.81352C450.292 8.00147 452.334 8.19388 454.354 8.39066L454.645 5.4048ZM442.431 4.29204C440.421 4.12124 438.391 3.95453 436.339 3.79196L436.102 6.78259C438.148 6.94471 440.173 7.11095 442.177 7.28126L442.431 4.29204ZM430.169 3.32022C428.178 3.17355 426.169 3.03067 424.14 2.89161L423.935 5.88459C425.959 6.0233 427.963 6.16582 429.948 6.31211L430.169 3.32022ZM417.993 2.48596C416.959 2.42028 415.92 2.35556 414.876 2.29182L414.693 5.28625C415.735 5.34984 416.772 5.4144 417.803 5.47993L417.993 2.48596ZM414.876 2.29182C413.871 2.23049 412.867 2.1708 411.863 2.11273L411.69 5.10772C412.69 5.16561 413.691 5.22511 414.693 5.28625L414.876 2.29182ZM405.844 1.78374C403.839 1.68051 401.836 1.58372 399.835 1.49328L399.699 4.49022C401.694 4.58038 403.691 4.67687 405.69 4.77977L405.844 1.78374ZM393.807 1.23984C391.799 1.16173 389.794 1.08996 387.79 1.02446L387.692 4.02286C389.69 4.08816 391.689 4.1597 393.69 4.23757L393.807 1.23984ZM381.766 0.84622C379.756 0.79295 377.748 0.745937 375.742 0.705106L375.681 3.70449C377.681 3.74519 379.683 3.79206 381.687 3.84517L381.766 0.84622ZM369.725 0.601013C367.712 0.572327 365.701 0.549812 363.693 0.533389L363.669 3.53329C365.671 3.54966 367.675 3.57211 369.682 3.60071L369.725 0.601013ZM357.675 0.502324C355.663 0.497993 353.653 0.499726 351.646 0.507445L351.657 3.50742C353.659 3.49973 355.662 3.498 357.668 3.50232L357.675 0.502324ZM345.622 0.548568C343.613 0.568262 341.606 0.593903 339.602 0.625411L339.649 3.62504C341.647 3.59362 343.648 3.56806 345.652 3.54842L345.622 0.548568ZM333.573 0.737964C331.566 0.781342 329.562 0.830553 327.56 0.885518L327.642 3.88439C329.638 3.82958 331.637 3.78051 333.638 3.73726L333.573 0.737964ZM321.53 1.06868C319.522 1.13552 317.516 1.20811 315.513 1.28636L315.631 4.28407C317.628 4.20605 319.627 4.13367 321.63 4.06702L321.53 1.06868ZM309.494 1.53889C307.484 1.62896 305.478 1.72468 303.474 1.82597L303.626 4.82214C305.624 4.72115 307.625 4.6257 309.628 4.53588L309.494 1.53889ZM297.466 2.1468C295.456 2.25987 293.449 2.37849 291.445 2.50257L291.63 5.49684C293.629 5.3731 295.63 5.25481 297.635 5.14207L297.466 2.1468ZM285.442 2.89116C283.433 3.02683 281.428 3.16795 279.425 3.31442L279.644 6.30643C281.641 6.16036 283.641 6.01963 285.644 5.88434L285.442 2.89116ZM273.422 3.77043C271.417 3.92826 269.416 4.09142 267.418 4.25981L267.67 7.24921C269.662 7.08128 271.658 6.91857 273.657 6.76117L273.422 3.77043ZM261.414 4.78257C259.414 4.96223 257.417 5.14709 255.425 5.33706L255.709 8.32352C257.697 8.13407 259.688 7.94971 261.682 7.77054L261.414 4.78257ZM249.42 5.92594C247.423 6.12734 245.429 6.33382 243.439 6.5453L243.756 9.5285C245.74 9.31759 247.729 9.11166 249.721 8.9108L249.42 5.92594ZM237.441 7.19893C235.444 7.42207 233.451 7.65018 231.461 7.88317L231.81 10.8628C233.794 10.6304 235.782 10.4029 237.775 10.1804L237.441 7.19893ZM225.479 8.60001C223.482 8.84468 221.489 9.09422 219.501 9.34855L219.881 12.3243C221.865 12.0707 223.852 11.8218 225.844 11.5777L225.479 8.60001ZM213.534 10.1277C211.537 10.3937 209.545 10.6645 207.558 10.94L207.97 13.9115C209.952 13.6368 211.939 13.3667 213.93 13.1014L213.534 10.1277ZM201.607 11.7805C199.611 12.0677 197.62 12.3596 195.634 12.656L196.077 15.6231C198.058 15.3275 200.044 15.0364 202.034 14.7499L201.607 11.7805ZM189.689 13.5588C187.698 13.8665 185.711 14.1787 183.73 14.4954L184.203 17.4578C186.179 17.1419 188.161 16.8305 190.147 16.5236L189.689 13.5588ZM177.79 15.4602C175.803 15.788 173.822 16.1203 171.846 16.4568L172.35 19.4142C174.321 19.0785 176.297 18.7471 178.278 18.4201L177.79 15.4602ZM165.911 17.4831C163.93 17.8309 161.955 18.183 159.984 18.5392L160.518 21.4913C162.483 21.136 164.454 20.7849 166.43 20.4379L165.911 17.4831ZM154.055 19.6265C152.08 19.9941 150.11 20.3657 148.145 20.7413L148.709 23.6879C150.668 23.3133 152.633 22.9426 154.604 22.5759L154.055 19.6265ZM142.223 21.8893C140.252 22.2764 138.288 22.6675 136.329 23.0624L136.922 26.0032C138.876 25.6093 140.835 25.2192 142.801 24.8331L142.223 21.8893ZM130.414 24.2706C128.448 24.6772 126.489 25.0876 124.536 25.5017L125.159 28.4364C127.106 28.0234 129.061 27.614 131.021 27.2084L130.414 24.2706ZM118.63 26.7695C116.667 27.1959 114.711 27.6259 112.762 28.0595L113.414 30.988C115.358 30.5554 117.309 30.1265 119.267 29.7011L118.63 26.7695ZM106.872 29.3853C104.912 29.8313 102.96 30.2809 101.015 30.7338L101.695 33.6557C103.636 33.2038 105.583 32.7554 107.538 32.3104L106.872 29.3853ZM95.1399 32.1173C93.1843 32.5829 91.2362 33.0518 89.2956 33.524L90.0048 36.4389C91.9406 35.9679 93.884 35.5002 95.8347 35.0357L95.1399 32.1173ZM83.4357 34.965C81.4843 35.45 79.5407 35.9382 77.6051 36.4294L78.3431 39.3372C80.2739 38.8472 82.2127 38.3603 84.1593 37.8764L83.4357 34.965ZM71.76 37.9281C69.8132 38.4324 67.8748 38.9397 65.9447 39.4498L66.7113 42.3502C68.6366 41.8414 70.5703 41.3353 72.5123 40.8323L71.76 37.9281ZM60.1137 41.0064C58.1722 41.5298 56.2395 42.0561 54.3158 42.5849L55.111 45.4776C57.03 44.95 58.9579 44.4251 60.8946 43.903L60.1137 41.0064ZM48.4982 44.1997C46.5626 44.7421 44.6364 45.2871 42.7197 45.8345L43.5436 48.7192C45.4555 48.1731 47.377 47.6295 49.3077 47.0884L48.4982 44.1997ZM36.9148 47.508C34.986 48.0693 33.0672 48.6329 31.1585 49.1986L32.011 52.0749C33.915 51.5106 35.8291 50.9484 37.753 50.3886L36.9148 47.508ZM25.3652 50.9316C23.4399 51.5128 21.5251 52.0961 19.6211 52.6814L20.5025 55.549C22.4017 54.9652 24.3117 54.3834 26.2322 53.8036L25.3652 50.9316ZM13.8518 54.4706C11.929 55.0723 10.0175 55.6758 8.11761 56.281L9.02806 59.1395C10.9232 58.5359 12.8297 57.9339 14.7477 57.3337L13.8518 54.4706ZM2.37703 58.1256C1.42629 58.4338 0.478546 58.7423 -0.466184 59.0512L0.466184 61.9027C1.40849 61.5945 2.3538 61.2868 3.30211 60.9794L2.37703 58.1256ZM-1.5 60.4769V63.4363H1.5V60.4769H-1.5ZM-1.5 69.3551V75.274H1.5V69.3551H-1.5ZM-1.5 81.1928V87.1116H1.5V81.1928H-1.5ZM-1.5 93.0304V98.9492H1.5V93.0304H-1.5ZM-1.5 104.868V110.787H1.5V104.868H-1.5ZM-1.5 116.706V122.624H1.5V116.706H-1.5ZM-1.5 128.543V134.462H1.5V128.543H-1.5ZM-1.5 140.381V146.3H1.5V140.381H-1.5ZM-1.5 152.218V158.137H1.5V152.218H-1.5ZM-1.5 164.056V169.975H1.5V164.056H-1.5ZM-1.5 175.894V181.812H1.5V175.894H-1.5ZM-1.5 187.731V193.65H1.5V187.731H-1.5ZM-1.5 199.569V205.488H1.5V199.569H-1.5ZM-1.5 211.407V217.325H1.5V211.407H-1.5ZM-1.5 223.244V229.163H1.5V223.244H-1.5ZM-1.5 235.082V238.041H1.5V235.082H-1.5ZM0 239.541H3V236.541H0V239.541ZM9 239.541H15V236.541H9V239.541ZM21 239.541H27V236.541H21V239.541ZM33 239.541H39V236.541H33V239.541ZM45 239.541H51V236.541H45V239.541ZM57 239.541H63V236.541H57V239.541ZM69 239.541H75V236.541H69V239.541ZM81 239.541H87V236.541H81V239.541ZM93 239.541H99V236.541H93V239.541ZM105 239.541H111V236.541H105V239.541ZM117 239.541H123V236.541H117V239.541ZM129 239.541H135V236.541H129V239.541ZM141 239.541H147V236.541H141V239.541ZM153 239.541H159V236.541H153V239.541ZM165 239.541H171V236.541H165V239.541ZM177 239.541H183V236.541H177V239.541ZM189 239.541H195V236.541H189V239.541ZM201 239.541H207V236.541H201V239.541ZM213 239.541H219V236.541H213V239.541ZM225 239.541H231V236.541H225V239.541ZM237 239.541H243V236.541H237V239.541ZM249 239.541H255V236.541H249V239.541ZM261 239.541H267V236.541H261V239.541ZM273 239.541H279V236.541H273V239.541ZM285 239.541H291V236.541H285V239.541ZM297 239.541H303V236.541H297V239.541ZM309 239.541H315V236.541H309V239.541ZM321 239.541H327V236.541H321V239.541ZM333 239.541H339V236.541H333V239.541ZM345 239.541H351V236.541H345V239.541ZM357 239.541H363V236.541H357V239.541ZM369 239.541H375V236.541H369V239.541ZM381 239.541H387V236.541H381V239.541ZM393 239.541H399V236.541H393V239.541ZM405 239.541H411V236.541H405V239.541ZM417 239.541H423V236.541H417V239.541ZM429 239.541H435V236.541H429V239.541ZM441 239.541H447V236.541H441V239.541ZM453 239.541H459V236.541H453V239.541ZM465 239.541H471V236.541H465V239.541ZM477 239.541H483V236.541H477V239.541ZM489 239.541H495V236.541H489V239.541ZM501 239.541H507V236.541H501V239.541ZM513 239.541H519V236.541H513V239.541ZM525 239.541H531V236.541H525V239.541ZM537 239.541H543V236.541H537V239.541ZM549 239.541H555V236.541H549V239.541ZM561 239.541H567V236.541H561V239.541ZM573 239.541H579V236.541H573V239.541ZM585 239.541H591V236.541H585V239.541ZM597 239.541H603V236.541H597V239.541ZM609 239.541H615V236.541H609V239.541ZM621 239.541H627V236.541H621V239.541ZM633 239.541H639V236.541H633V239.541ZM645 239.541H651V236.541H645V239.541ZM657 239.541H663V236.541H657V239.541ZM669 239.541H675V236.541H669V239.541ZM681 239.541H687V236.541H681V239.541ZM693 239.541H699V236.541H693V239.541ZM705 239.541H711V236.541H705V239.541ZM717 239.541H723V236.541H717V239.541ZM729 239.541H735V236.541H729V239.541ZM741 239.541H747V236.541H741V239.541ZM753 239.541H759V236.541H753V239.541ZM765 239.541H771V236.541H765V239.541ZM777 239.541H783V236.541H777V239.541ZM789 239.541H795V236.541H789V239.541ZM801 239.541H807V236.541H801V239.541ZM813 239.541H819V236.541H813V239.541ZM825 239.541H831V236.541H825V239.541ZM837 239.541H843V236.541H837V239.541ZM849 239.541H855V236.541H849V239.541ZM861 239.541H867V236.541H861V239.541ZM873 239.541H879V236.541H873V239.541ZM885 239.541H891V236.541H885V239.541ZM897 239.541H903V236.541H897V239.541ZM909 239.541H915V236.541H909V239.541ZM921 239.541H927V236.541H921V239.541ZM933 239.541H939V236.541H933V239.541ZM945 239.541H951V236.541H945V239.541ZM957 239.541H963V236.541H957V239.541ZM969 239.541H975V236.541H969V239.541ZM981 239.541H987V236.541H981V239.541ZM993 239.541H999V236.541H993V239.541ZM1005 239.541H1011V236.541H1005V239.541ZM1017 239.541H1023V236.541H1017V239.541ZM1029 239.541H1035V236.541H1029V239.541ZM1041 239.541H1047V236.541H1041V239.541ZM1053 239.541H1059V236.541H1053V239.541ZM1065 239.541H1071V236.541H1065V239.541ZM1077 239.541H1083V236.541H1077V239.541ZM1089 239.541H1095V236.541H1089V239.541ZM1101 239.541H1107V236.541H1101V239.541ZM1113 239.541H1119V236.541H1113V239.541ZM1125 239.541H1131V236.541H1125V239.541ZM1137 239.541H1143V236.541H1137V239.541ZM1149 239.541H1155V236.541H1149V239.541ZM1161 239.541H1167V236.541H1161V239.541ZM1173 239.541H1179V236.541H1173V239.541ZM1185 239.541H1191V236.541H1185V239.541ZM1197 239.541H1203V236.541H1197V239.541ZM1209 239.541H1215V236.541H1209V239.541ZM1221 239.541H1227V236.541H1221V239.541ZM1233 239.541H1239V236.541H1233V239.541ZM1245 239.541H1251V236.541H1245V239.541ZM1257 239.541H1263V236.541H1257V239.541ZM1269 239.541H1275V236.541H1269V239.541ZM1281 239.541H1287V236.541H1281V239.541ZM1293 239.541H1299V236.541H1293V239.541ZM1305 239.541H1311V236.541H1305V239.541ZM1317 239.541H1323V236.541H1317V239.541ZM1329 239.541H1335V236.541H1329V239.541ZM1341 239.541H1347V236.541H1341V239.541ZM1353 239.541H1359V236.541H1353V239.541ZM1365 239.541H1371V236.541H1365V239.541ZM1377 239.541H1383V236.541H1377V239.541ZM1389 239.541H1395V236.541H1389V239.541ZM1401 239.541H1407V236.541H1401V239.541ZM1413 239.541H1419V236.541H1413V239.541ZM1425 239.541H1431V236.541H1425V239.541ZM1437 239.541H1440V236.541H1437V239.541ZM1441.5 238.041V234.949H1438.5V238.041H1441.5ZM1441.5 228.765V222.581H1438.5V228.765H1441.5ZM1441.5 216.397V210.213H1438.5V216.397H1441.5ZM1441.5 204.029V197.845H1438.5V204.029H1441.5ZM1441.5 191.661V185.477H1438.5V191.661H1441.5ZM1441.5 179.293V173.109H1438.5V179.293H1441.5ZM1441.5 166.925V160.741H1438.5V166.925H1441.5ZM1441.5 154.557V148.373H1438.5V154.557H1441.5ZM1441.5 142.189V136.005H1438.5V142.189H1441.5ZM1441.5 129.821V123.637H1438.5V129.821H1441.5ZM1441.5 117.453V111.269H1438.5V117.453H1441.5ZM1441.5 105.085V98.9008H1438.5V105.085H1441.5ZM1441.5 92.7168V86.5327H1438.5V92.7168H1441.5ZM1441.5 80.3487V74.1647H1438.5V80.3487H1441.5ZM1441.5 67.9807V61.7967H1438.5V67.9807H1441.5ZM1441.5 55.6126V49.4286H1438.5V55.6126H1441.5ZM1441.5 43.2446V40.1526H1438.5V43.2446H1441.5Z" fill="#9DF700" fill-opacity="0.85"/>
<path fill-rule="evenodd" clip-rule="evenodd" d="M1440 119.804V238.364H0V153.071C50.5762 105.502 127.647 50.8023 210.5 40.0431C286.904 30.1213 377.199 66.4861 462.367 100.786C537.159 130.907 607.996 159.436 662 153.627C711.998 148.249 758.248 135.804 804.279 123.417C864.584 107.19 924.513 91.0637 992 91.0637C1049.96 91.0637 1109.7 104.326 1166.83 117.009C1226.99 130.365 1284.26 143.078 1333.5 138.982C1362.59 136.562 1400.55 128.926 1440 119.804Z" fill="#9DF700" fill-opacity="0.2"/>
</svg>
